HIERARCHY
ROOT Hips
{
 OFFSET 0.000000 0.000000 0.000000
 CHANNELS 6 Xposition Yposition Zposition Yrotation Xrotation Zrotation
 JOINT Chest
 {
  OFFSET 0.000000 10.472350 -0.000389
  CHANNELS 3 Yrotation Xrotation Zrotation
  JOINT Chest2
  {
   OFFSET 0.000000 11.551931 0.000707
   CHANNELS 3 Yrotation Xrotation Zrotation
   JOINT Chest3
   {
    OFFSET 0.000000 10.437915 0.000000
    CHANNELS 3 Yrotation Xrotation Zrotation
    JOINT Chest4
    {
     OFFSET 0.000000 10.437915 0.000000
     CHANNELS 3 Yrotation Xrotation Zrotation
     JOINT Neck
     {
      OFFSET 0.000000 14.676306 0.000000
      CHANNELS 3 Yrotation Xrotation Zrotation
      JOINT Head
      {
       OFFSET 0.000000 9.715761 0.001682
       CHANNELS 3 Yrotation Xrotation Zrotation
       End Site
       {
        OFFSET 0.000000 18.584037 0.000879
       }
      }
     }
     JOINT RightCollar
     {
      OFFSET -3.192169 8.189398 0.000000
      CHANNELS 3 Yrotation Xrotation Zrotation
      JOINT RightShoulder
      {
       OFFSET -14.921841 0.000000 0.000000
       CHANNELS 3 Yrotation Xrotation Zrotation
       JOINT RightElbow
       {
        OFFSET 0.000000 -31.895804 0.000000
        CHANNELS 3 Yrotation Xrotation Zrotation
        JOINT RightWrist
        {
         OFFSET 0.000000 -26.087765 -0.000000
         CHANNELS 3 Yrotation Xrotation Zrotation
         End Site
         {
          OFFSET 0.000000 -19.509425 0.000000
         }
        }
       }
      }
     }
     JOINT LeftCollar
     {
      OFFSET 3.192169 8.189398 0.000000
      CHANNELS 3 Yrotation Xrotation Zrotation
      JOINT LeftShoulder
      {
       OFFSET 14.921841 0.000000 0.000000
       CHANNELS 3 Yrotation Xrotation Zrotation
       JOINT LeftElbow
       {
        OFFSET 0.000000 -31.895804 0.000000
        CHANNELS 3 Yrotation Xrotation Zrotation
        JOINT LeftWrist
        {
         OFFSET 0.000000 -26.087765 -0.000000
         CHANNELS 3 Yrotation Xrotation Zrotation
         End Site
         {
          OFFSET 0.000000 -19.509425 0.000000
         }
        }
       }
      }
     }
    }
   }
  }
 }
 JOINT RightHip
 {
  OFFSET -8.507794 0.001908 0.000195
  CHANNELS 3 Yrotation Xrotation Zrotation
  JOINT RightKnee
  {
   OFFSET 0.000000 -44.002854 -0.000184
   CHANNELS 3 Yrotation Xrotation Zrotation
   JOINT RightAnkle
   {
    OFFSET 0.000000 -43.029750 -0.000312
    CHANNELS 3 Yrotation Xrotation Zrotation
    JOINT RightToe
    {
     OFFSET 0.000000 -7.822577 17.783028
     CHANNELS 3 Yrotation Xrotation Zrotation
     End Site
     {
      OFFSET 0.000000 -1.616737 7.073338
     }
    }
   }
  }
 }
 JOINT LeftHip
 {
  OFFSET 8.507794 0.001908 0.000195
  CHANNELS 3 Yrotation Xrotation Zrotation
  JOINT LeftKnee
  {
   OFFSET 0.000000 -44.002854 -0.000184
   CHANNELS 3 Yrotation Xrotation Zrotation
   JOINT LeftAnkle
   {
    OFFSET 0.000000 -43.029750 -0.000312
    CHANNELS 3 Yrotation Xrotation Zrotation
    JOINT LeftToe
    {
     OFFSET 0.000000 -7.822577 17.783028
     CHANNELS 3 Yrotation Xrotation Zrotation
     End Site
     {
      OFFSET 0.000000 -1.616737 7.073338
     }
    }
   }
  }
 }
}
MOTION
Frames: 6
Frame Time: 0.008333
148.829378 95.538178 -16.391471 160.138372 -17.518149 -4.002953 -1.151477 12.949723 5.541625 -0.721834 5.761948 2.371235 -0.721834 5.761948 2.371235 -0.563352 4.318748 1.783753 -0.477106 26.194790 6.018767 -1.915365 2.818404 6.742980 -6.373013 7.677861 9.196774 -22.946370 -17.619591 -18.851345 35.971259 -65.137651 -11.857715 27.114828 16.170676 0.506539 1.265934 6.547529 -7.033530 8.207985 -11.381780 14.597496 -4.843648 -15.361766 -14.436267 -15.033962 -5.007369 5.408112 -25.994292 26.301562 -5.174023 12.681536 -1.839743 7.178014 -13.099740 -5.672328 -10.676780 -0.009614 0.292566 -0.014873 45.901879 -3.243216 23.842234 -27.882618 17.585405 -3.217998 9.388819 -6.998658 -4.323676 -0.040640 -0.332192 -0.017928
148.840274 95.538596 -16.374573 160.142279 -17.518238 -4.002150 -1.165651 12.936692 5.539858 -0.727287 5.755834 2.370047 -0.727287 5.755834 2.370047 -0.567404 4.314143 1.782910 -0.471401 26.198942 6.011764 -1.907434 2.822824 6.733831 -6.354912 7.706119 9.213368 -22.988034 -17.644321 -18.838683 35.369047 -65.328555 -11.316644 26.922062 16.072181 0.502754 1.279560 6.560951 -7.040160 8.198249 -11.376016 14.590590 -4.852611 -15.346477 -14.431569 -15.052794 -5.001641 5.404690 -25.986729 26.300104 -5.167840 12.673825 -1.836281 7.180562 -13.104320 -5.671491 -10.678993 -0.006689 0.289818 -0.014230 45.913589 -3.244026 23.852791 -27.901713 17.562870 -3.227324 9.350110 -6.992681 -4.317153 -0.041925 -0.331221 -0.017674
148.845958 95.539532 -16.373455 160.146040 -17.524338 -4.003377 -1.175011 12.927380 5.539108 -0.731295 5.751088 2.368467 -0.731295 5.751088 2.368467 -0.570375 4.310569 1.781760 -0.466944 26.201742 6.008775 -1.901818 2.825927 6.729464 -6.348827 7.734575 9.224333 -23.028995 -17.670483 -18.813292 34.771361 -65.527276 -10.792907 26.721090 15.959129 0.514271 1.285748 6.567952 -7.041240 8.197936 -11.367761 14.581461 -4.869643 -15.327820 -14.422283 -15.060590 -5.001012 5.395630 -25.981170 26.305890 -5.166827 12.674819 -1.835011 7.189069 -13.111540 -5.669026 -10.686359 -0.003489 0.285834 -0.012085 45.922941 -3.235972 23.867533 -27.908391 17.537647 -3.228080 9.344123 -6.981011 -4.321504 -0.039784 -0.330641 -0.015085
148.853757 95.540410 -16.372262 160.158625 -17.531906 -4.005822 -1.196227 12.921828 5.537884 -0.738863 5.747690 2.367048 -0.738863 5.747690 2.367048 -0.576020 4.307993 1.780766 -0.457847 26.203456 6.001391 -1.890061 2.827124 6.719016 -6.327281 7.751531 9.237403 -23.069588 -17.688087 -18.794154 34.223760 -65.735000 -10.324976 26.510647 15.841184 0.539286 1.302084 6.573590 -7.046527 8.196262 -11.358248 14.580634 -4.886698 -15.312272 -14.417482 -15.069410 -5.004418 5.387572 -25.987944 26.316008 -5.166170 12.668820 -1.834228 7.193046 -13.112961 -5.665683 -10.693434 0.002318 0.280295 -0.009010 45.916421 -3.226320 23.884582 -27.912356 17.515102 -3.233865 9.344839 -6.967603 -4.324206 -0.037197 -0.331631 -0.013792
148.858928 95.540666 -16.369705 160.159283 -17.535768 -4.004999 -1.204698 12.908200 5.535679 -0.744216 5.743987 2.366759 -0.744216 5.743987 2.366759 -0.580014 4.305195 1.780598 -0.453753 26.205555 5.996878 -1.884492 2.829234 6.713008 -6.316412 7.772045 9.248248 -23.109945 -17.716783 -18.777024 33.725217 -65.945715 -9.908006 26.329079 15.710937 0.578202 1.303529 6.583891 -7.052145 8.200490 -11.350227 14.573861 -4.902172 -15.291661 -14.407267 -15.074174 -5.004710 5.379333 -25.987667 26.315158 -5.164862 12.669460 -1.827725 7.196687 -13.119140 -5.664133 -10.698600 0.004795 0.276803 -0.006560 45.920952 -3.220294 23.894965 -27.921004 17.497195 -3.239633 9.342548 -6.960390 -4.323525 -0.041355 -0.332054 -0.014035
148.865494 95.541181 -16.367874 160.162481 -17.545149 -4.004841 -1.214605 12.899598 5.534876 -0.746035 5.739947 2.366871 -0.746035 5.739947 2.366871 -0.581364 4.302159 1.780696 -0.450470 26.206089 5.993230 -1.880020 2.829477 6.708130 -6.314364 7.789939 9.265213 -23.147434 -17.742023 -18.756538 33.312171 -66.155556 -9.599698 26.181613 15.573307 0.632555 1.293622 6.594899 -7.055338 8.211421 -11.346509 14.575523 -4.912179 -15.270136 -14.407670 -15.086236 -5.005170 5.363841 -25.989894 26.319300 -5.169611 12.671890 -1.816927 7.204159 -13.109102 -5.669103 -10.704555 0.001959 0.277245 -0.005296 45.916006 -3.204660 23.912857 -27.937477 17.471796 -3.251320 9.371159 -6.948026 -4.326611 -0.038808 -0.331887 -0.012877
